<svg width="3137" height="1437" viewBox="0 0 3137 1437" fill="none" xmlns="http://www.w3.org/2000/svg">
<path d="M2247.84 404.665L2481.56 1014.8C2483.11 1018.83 2483.65 1023.17 2483.14 1027.45C2482.63 1031.73 2481.09 1035.82 2478.65 1039.37C2476.2 1042.92 2472.94 1045.82 2469.12 1047.83C2465.31 1049.84 2461.06 1050.89 2456.75 1050.89H2415.07C2409.61 1050.88 2404.29 1049.21 2399.83 1046.08C2395.36 1042.95 2391.96 1038.52 2390.1 1033.39L2188.2 478.087L1986.3 1033.4C1984.43 1038.52 1981.04 1042.95 1976.57 1046.08C1972.11 1049.21 1966.78 1050.89 1961.33 1050.89H1919.59C1915.28 1050.89 1911.04 1049.84 1907.23 1047.84C1903.42 1045.83 1900.15 1042.93 1897.71 1039.39C1895.27 1035.84 1893.72 1031.75 1893.21 1027.48C1892.7 1023.2 1893.23 1018.87 1894.77 1014.84L2127.52 404.701C2129.44 399.67 2132.85 395.34 2137.28 392.285C2141.72 389.23 2146.97 387.594 2152.36 387.594H2223.03C2228.4 387.594 2233.66 389.225 2238.09 392.273C2242.52 395.321 2245.92 399.642 2247.84 404.665Z" fill="white"/>
<path d="M297.478 1033.82L63.7584 423.678C62.2169 419.653 61.6772 415.314 62.1857 411.035C62.6943 406.755 64.2358 402.664 66.6775 399.113C69.1192 395.562 72.3877 392.658 76.2013 390.652C80.0149 388.646 84.259 387.597 88.5679 387.597H130.255C135.708 387.598 141.03 389.277 145.497 392.406C149.963 395.536 153.359 399.964 155.223 405.09L357.122 960.395L559.025 405.087C560.888 399.96 564.284 395.532 568.75 392.402C573.217 389.272 578.539 387.594 583.993 387.594H625.735C630.04 387.594 634.281 388.642 638.093 390.645C641.904 392.649 645.171 395.549 647.614 399.096C650.056 402.642 651.6 406.73 652.112 411.005C652.625 415.281 652.091 419.618 650.556 423.641L417.798 1033.78C415.878 1038.81 412.476 1043.14 408.041 1046.2C403.607 1049.25 398.35 1050.89 392.965 1050.89H322.296C316.918 1050.89 311.667 1049.26 307.236 1046.21C302.805 1043.16 299.402 1038.84 297.478 1033.82Z" fill="white"/>
<path d="M735.323 1022.88V414.144C735.306 410.674 735.973 407.234 737.285 404.022C738.597 400.81 740.529 397.888 742.971 395.422C745.412 392.957 748.315 390.997 751.514 389.653C754.713 388.31 758.145 387.61 761.615 387.594H794.446C797.915 387.61 801.347 388.31 804.546 389.653C807.745 390.997 810.648 392.957 813.09 395.422C815.531 397.888 817.463 400.81 818.775 404.022C820.088 407.234 820.754 410.674 820.738 414.144V1022.88C820.754 1026.35 820.088 1029.79 818.775 1033C817.463 1036.22 815.531 1039.14 813.089 1041.6C810.648 1044.07 807.745 1046.03 804.546 1047.37C801.347 1048.71 797.915 1049.41 794.446 1049.43H761.614C758.145 1049.41 754.713 1048.71 751.514 1047.37C748.315 1046.03 745.412 1044.07 742.971 1041.6C740.529 1039.14 738.597 1036.21 737.285 1033C735.973 1029.79 735.306 1026.35 735.323 1022.88Z" fill="white"/>
<path d="M1678.9 1019.47V818.795L1432.04 426.74C1429.52 422.738 1428.12 418.134 1427.98 413.407C1427.85 408.68 1428.98 404.003 1431.26 399.863C1433.55 395.723 1436.9 392.271 1440.97 389.868C1445.05 387.464 1449.69 386.196 1454.42 386.197H1484.49C1488.99 386.197 1493.41 387.346 1497.35 389.536C1501.28 391.726 1504.59 394.884 1506.96 398.711L1721.37 744.613L1935.77 398.711C1938.14 394.884 1941.45 391.726 1945.39 389.535C1949.32 387.345 1953.75 386.196 1958.25 386.195H1988.41C1993.14 386.196 1997.77 387.462 2001.84 389.862C2005.91 392.262 2009.27 395.708 2011.55 399.843C2013.84 403.978 2014.98 408.649 2014.85 413.373C2014.72 418.096 2013.32 422.698 2010.81 426.7L1764.87 818.795V1019.47C1764.87 1026.49 1762.08 1033.22 1757.12 1038.18C1752.16 1043.14 1745.44 1045.92 1738.42 1045.93H1705.35C1701.88 1045.93 1698.44 1045.24 1695.23 1043.91C1692.02 1042.58 1689.1 1040.63 1686.65 1038.18C1684.19 1035.72 1682.25 1032.81 1680.92 1029.6C1679.59 1026.39 1678.9 1022.95 1678.9 1019.47Z" fill="white"/>
<path d="M1491.22 718.09C1490.37 693.72 1478.96 670.403 1457.43 657.97C1457.36 657.922 1020.07 405.407 1020.07 405.407C995.758 391.364 968.971 394.487 946.252 409.826C927.454 422.525 914.951 443.155 914.951 466.121V971.235C914.951 994.467 928.967 1015.88 948.128 1028.26C959.136 1035.56 971.891 1039.8 985.082 1040.54C997.331 1041.1 1009.48 1038.11 1020.07 1031.94L1096.6 987.753C1098.39 986.72 1099.95 985.346 1101.21 983.708C1102.47 982.069 1103.39 980.2 1103.92 978.205C1104.46 976.21 1104.59 974.13 1104.32 972.082C1104.06 970.035 1103.39 968.061 1102.35 966.272L1088.03 941.463C1085.95 937.852 1082.51 935.216 1078.49 934.137C1074.46 933.057 1070.17 933.622 1066.56 935.707L990.034 979.891C988.514 980.768 986.79 981.23 985.036 981.23C983.281 981.23 981.557 980.768 980.038 979.891C978.518 979.014 977.256 977.753 976.378 976.233C975.5 974.714 975.037 972.99 975.036 971.235V466.121C975.003 464.358 975.451 462.619 976.332 461.092C977.213 459.565 978.494 458.307 980.036 457.453C981.565 456.561 983.3 456.081 985.071 456.061C986.819 456.074 988.533 456.555 990.034 457.453L1427.39 710.003V710.015C1428.91 710.891 1430.18 712.153 1431.06 713.673C1431.94 715.194 1432.4 716.92 1432.4 718.677C1432.4 720.434 1431.94 722.16 1431.06 723.681C1430.18 725.202 1428.91 726.464 1427.39 727.339L1149.21 887.973C1145.6 890.059 1142.96 893.493 1141.89 897.522C1140.81 901.55 1141.37 905.842 1143.46 909.454L1157.78 934.263C1159.86 937.875 1163.3 940.51 1167.32 941.59C1171.35 942.669 1175.64 942.104 1179.25 940.019L1457.43 779.385C1468.21 773.324 1477.08 764.376 1483.05 753.548C1489.02 742.72 1491.85 730.44 1491.22 718.09Z" fill="white"/>
<path d="M988.034 1052.01C986.889 1052.01 985.739 1051.98 984.583 1051.93C969.368 1051.1 954.65 1046.23 941.936 1037.83C918.263 1022.54 903.553 997.021 903.553 971.233V466.118C903.553 440.316 917.13 415.739 939.872 400.375C967.501 381.724 998.81 379.96 1025.78 395.53C1418.37 622.24 1458.72 645.542 1463.13 648.103L1463.13 648.093C1486.8 661.761 1501.56 687.777 1502.62 717.685V717.689C1503.28 732.101 1499.94 746.415 1492.97 759.047C1486 771.679 1475.67 782.135 1463.13 789.258L1184.95 949.892C1181.87 951.673 1178.46 952.829 1174.93 953.294C1171.4 953.759 1167.81 953.524 1164.37 952.602C1160.93 951.68 1157.71 950.089 1154.88 947.92C1152.06 945.752 1149.69 943.047 1147.91 939.962L1133.59 915.153C1130 908.92 1129.03 901.519 1130.89 894.572C1132.75 887.625 1137.29 881.7 1143.51 878.097L1419.59 718.678L1416 716.593L986.437 468.542V968.799L1060.86 925.829C1067.09 922.244 1074.49 921.275 1081.43 923.137C1088.38 924.999 1094.3 929.538 1097.91 935.761L1112.23 960.568C1114.01 963.653 1115.16 967.059 1115.63 970.591C1116.09 974.124 1115.86 977.713 1114.94 981.154C1114.01 984.596 1112.42 987.822 1110.25 990.648C1108.09 993.474 1105.38 995.845 1102.3 997.626L1025.78 1041.81C1014.33 1048.51 1001.3 1052.03 988.034 1052.01ZM987.276 407.797C974.836 408.052 962.763 412.052 952.631 419.275C936.179 430.391 926.352 447.903 926.352 466.119V971.233C926.352 989.359 937.065 1007.54 954.313 1018.67C963.626 1024.88 974.42 1028.49 985.589 1029.15C995.667 1029.62 1005.66 1027.15 1014.37 1022.06L1090.9 977.877C1091.89 977.303 1092.61 976.359 1092.91 975.252C1093.21 974.144 1093.05 972.964 1092.48 971.971L1078.16 947.164C1077.59 946.172 1076.64 945.448 1075.53 945.151C1074.43 944.855 1073.25 945.01 1072.25 945.583L995.732 989.766C992.48 991.644 988.79 992.633 985.035 992.633C981.279 992.633 977.589 991.644 974.337 989.766C971.084 987.888 968.383 985.187 966.505 981.934C964.627 978.681 963.638 974.991 963.637 971.235V466.12C963.614 462.358 964.593 458.658 966.473 455.399C968.353 452.141 971.066 449.442 974.334 447.579C977.597 445.687 981.298 444.68 985.07 444.658C988.824 444.666 992.508 445.676 995.742 447.584L1438.79 703.417V704.874C1440.8 707.272 1442.26 710.08 1443.07 713.102C1443.88 716.125 1444.02 719.288 1443.48 722.369C1442.93 725.45 1441.72 728.376 1439.93 730.94C1438.14 733.503 1435.8 735.643 1433.1 737.21L1154.91 897.845C1153.92 898.419 1153.2 899.364 1152.9 900.471C1152.6 901.578 1152.76 902.758 1153.33 903.751L1167.65 928.56C1167.93 929.052 1168.31 929.483 1168.76 929.829C1169.21 930.174 1169.73 930.428 1170.28 930.575C1170.82 930.722 1171.4 930.759 1171.96 930.685C1172.52 930.61 1173.06 930.426 1173.55 930.142L1451.73 769.509C1460.72 764.487 1468.12 757.042 1473.09 748.022C1478.05 739.002 1480.39 728.769 1479.83 718.486C1479.06 696.486 1468.55 677.554 1451.73 667.843L1451.44 667.675C1439.23 660.618 1018.67 417.762 1014.38 415.28C1006.17 410.425 996.813 407.843 987.276 407.797Z" fill="white"/>
<path d="M2602.18 387.592H2586.06V1050.95H2602.18V387.592Z" fill="white"/>
<path d="M2894.96 751.538H2876.54V609.872H2834.41V592.383H2937.2V609.872H2894.96V751.538Z" fill="white"/>
<path d="M3048.55 592.383H3063.85V696.346C3063.85 717.193 3059.12 732.148 3049.68 741.21C3040.23 750.272 3027.86 754.803 3012.56 754.803C2995.54 754.803 2982.93 750.136 2974.75 740.802C2966.56 731.468 2962.46 716.65 2962.46 696.346V592.383H2980.89V696.355C2980.89 708.726 2982.22 717.439 2984.87 722.495C2987.48 727.509 2991.75 731.467 2996.94 733.698C3002.26 736.095 3008.02 737.328 3013.86 737.315C3025.2 737.315 3033.82 734.086 3039.71 727.629C3045.6 721.173 3048.55 710.748 3048.55 696.356V592.383Z" fill="white"/>
<path d="M2902.45 975.045H2884.03V815.891H2902.45V975.045Z" fill="white"/>
<path d="M3012.87 978.31C2993.98 978.31 2979.25 970.356 2968.7 954.449C2958.14 938.541 2952.86 919.036 2952.86 895.934C2952.86 871.82 2958.39 851.907 2969.45 836.194C2980.51 820.482 2995.16 812.626 3013.41 812.625C3031.58 812.625 3046.16 820.345 3057.15 835.786C3068.14 851.228 3073.63 870.695 3073.63 894.184C3073.63 916.743 3068.3 936.404 3057.64 953.167C3046.97 969.929 3032.05 978.311 3012.87 978.31ZM3013.3 962.103C3026.16 962.103 3036.21 955.762 3043.47 943.081C3050.72 930.4 3054.35 914.062 3054.35 894.066C3054.35 873.527 3050.6 857.539 3043.09 846.102C3035.59 834.666 3025.62 828.948 3013.19 828.948C3000.62 828.948 2990.64 835.133 2983.24 847.504C2975.84 859.874 2972.15 876.056 2972.15 896.05C2972.15 915.578 2975.88 931.469 2983.35 943.722C2990.82 955.975 3000.8 962.102 3013.3 962.103Z" fill="white"/>
<path d="M2706.15 709.445L2722.74 705.364C2729.42 727.052 2743.89 737.895 2766.16 737.895C2777.79 737.895 2786.56 735.223 2792.45 729.88C2795.39 727.16 2797.71 723.829 2799.23 720.121C2800.76 716.413 2801.46 712.416 2801.28 708.41C2801.4 705.356 2800.87 702.311 2799.7 699.484C2798.54 696.657 2796.78 694.115 2794.55 692.03C2790.15 687.943 2784.8 685.009 2778.99 683.49L2749.57 675.639C2743.01 673.978 2736.71 671.404 2730.87 667.991C2725.62 664.544 2721.36 659.772 2718.54 654.155C2715.07 647.573 2713.33 640.223 2713.47 632.787C2713.47 619.476 2718.11 608.871 2727.37 600.97C2736.64 593.07 2748.52 589.119 2763.03 589.117C2789.75 589.117 2807.31 602.215 2815.72 628.41L2799.02 633.774C2798.28 629.505 2796.69 625.429 2794.34 621.792C2791.99 618.155 2788.93 615.032 2785.33 612.611C2778.58 607.965 2770.58 605.466 2762.39 605.441C2754.66 605.338 2747.11 607.766 2740.89 612.353C2737.82 614.574 2735.35 617.526 2733.7 620.941C2732.06 624.357 2731.29 628.128 2731.47 631.916C2731.47 643.709 2739.43 651.674 2755.36 655.813L2782.86 662.79C2807.99 669.322 2820.56 683.977 2820.56 706.756C2820.73 713.153 2819.56 719.514 2817.12 725.43C2814.68 731.345 2811.03 736.684 2806.4 741.101C2796.95 750.235 2783.65 754.803 2766.48 754.803C2736.03 754.802 2715.91 739.683 2706.15 709.445Z" fill="white"/>
<path d="M2720.98 528.649V456.219H2745.28C2755.5 456.219 2763.46 459.703 2769.16 466.672C2774.94 473.915 2777.97 482.98 2777.7 492.248C2777.99 501.574 2775.05 510.714 2769.37 518.116C2766.94 521.424 2763.76 524.105 2760.08 525.936C2756.41 527.768 2752.36 528.698 2748.25 528.649H2720.98ZM2730.06 520.955H2744.75C2752.53 520.955 2758.44 518.266 2762.47 512.889C2766.5 507.511 2768.52 500.419 2768.52 491.612C2768.6 484.755 2766.6 478.035 2762.76 472.35C2758.93 466.655 2752.92 463.807 2744.75 463.807H2730.06V520.955Z" fill="white"/>
<path d="M2801.11 528.649H2792.04V456.219H2801.11V528.649Z" fill="white"/>
<path d="M2873.6 492.147V529.66H2868.05L2865.56 520.587C2861.1 526.955 2854.47 530.139 2845.66 530.138C2841.34 530.326 2837.04 529.44 2833.15 527.558C2829.26 525.677 2825.9 522.86 2823.36 519.359C2817.92 511.739 2815.12 502.543 2815.4 493.181C2815.4 482.208 2818.21 473.057 2823.84 465.729C2826.48 462.178 2829.95 459.323 2833.94 457.409C2837.93 455.494 2842.33 454.577 2846.75 454.737C2860.09 454.737 2868.79 461.741 2872.86 475.749L2864.26 477.818C2863.47 473.185 2861 469.007 2857.31 466.092C2854.09 463.707 2850.18 462.424 2846.17 462.431C2842.99 462.254 2839.82 462.971 2837.03 464.501C2834.24 466.03 2831.93 468.312 2830.36 471.087C2826.75 477.741 2824.99 485.243 2825.27 492.809C2825.27 502.192 2827.17 509.53 2830.97 514.823C2832.68 517.345 2835 519.395 2837.71 520.783C2840.42 522.171 2843.44 522.852 2846.49 522.763C2848.85 522.827 2851.2 522.409 2853.39 521.536C2855.58 520.663 2857.58 519.352 2859.25 517.684C2861.01 515.819 2862.37 513.615 2863.25 511.205C2864.13 508.796 2864.51 506.232 2864.37 503.67C2864.37 502.57 2864.33 501.258 2864.26 499.734H2846.33V492.147L2873.6 492.147Z" fill="white"/>
<path d="M2900.09 528.649H2891.02V456.219H2900.09V528.649Z" fill="white"/>
<path d="M2940.8 528.649H2931.73V464.179H2910.98V456.219H2961.59V464.179H2940.8L2940.8 528.649Z" fill="white"/>
<path d="M3014.68 528.649H3005.41L2998.13 507.477H2971.26L2964.78 528.649H2957.2L2980.73 456.219H2990.99L3014.68 528.649ZM2996.2 500.685L2984.98 465.877L2973.78 500.685H2996.2Z" fill="white"/>
<path d="M3067.63 520.69V528.649H3024.87V456.219H3034.15V520.69H3067.63Z" fill="white"/>
<path d="M2729.45 977.026C2727.11 976.467 2724.82 975.711 2722.6 974.767C2714.41 970.475 2709.81 963.728 2709.64 954.49C2709.39 941.301 2709.56 928.105 2709.56 914.912C2709.56 887.929 2709.55 860.946 2709.55 833.962C2709.39 830.672 2709.97 827.389 2711.23 824.349C2712.5 821.308 2714.42 818.586 2716.87 816.379C2725.19 808.981 2735.46 808.223 2745.07 814.142C2773.52 831.673 2801.97 849.214 2830.41 866.764C2834.88 869.522 2839.46 872.134 2843.77 875.132C2846.82 877.201 2849.32 879.993 2851.04 883.259C2852.77 886.525 2853.66 890.165 2853.64 893.857C2853.62 897.549 2852.69 901.18 2850.93 904.428C2849.18 907.675 2846.65 910.44 2843.57 912.477C2834.21 918.738 2824.44 924.37 2814.83 930.26C2800.66 938.955 2786.48 947.642 2772.3 956.32C2771.47 956.939 2770.52 957.368 2769.51 957.579C2768.5 957.791 2767.46 957.778 2766.45 957.542C2765.29 957.242 2764.24 956.626 2763.41 955.764C2762.58 954.901 2762.01 953.825 2761.75 952.655C2761.5 951.486 2761.58 950.269 2761.97 949.139C2762.37 948.01 2763.07 947.013 2764 946.258C2764.56 945.827 2765.14 945.434 2765.75 945.082C2788.79 930.959 2811.84 916.838 2834.89 902.72C2839.44 899.929 2841.26 896.194 2840.28 891.589C2839.92 890.141 2839.25 888.787 2838.32 887.617C2837.39 886.448 2836.22 885.489 2834.9 884.806C2815.71 872.993 2796.53 861.167 2777.36 849.329C2764.22 841.226 2751.08 833.126 2737.93 825.028C2736.63 824.123 2735.12 823.546 2733.55 823.345C2731.97 823.144 2730.37 823.326 2728.88 823.874C2727.39 824.423 2726.05 825.323 2724.98 826.498C2723.91 827.673 2723.14 829.088 2722.74 830.624C2722.61 831.741 2722.56 832.865 2722.57 833.989C2722.57 873.622 2722.57 913.255 2722.57 952.889C2722.57 958.315 2725.09 962.059 2729.65 963.551C2730.89 963.946 2732.21 964.058 2733.5 963.879C2734.8 963.699 2736.03 963.234 2737.12 962.515C2737.84 962.032 2738.65 961.699 2739.51 961.534C2740.36 961.369 2741.23 961.377 2742.08 961.557C2742.93 961.737 2743.74 962.085 2744.45 962.581C2745.16 963.077 2745.77 963.71 2746.23 964.444C2746.69 965.178 2747.01 965.997 2747.15 966.853C2747.29 967.71 2747.26 968.586 2747.06 969.43C2746.86 970.274 2746.49 971.07 2745.97 971.769C2745.46 972.468 2744.81 973.057 2744.06 973.501C2741.49 975.119 2738.62 976.205 2735.62 976.696C2735.49 976.715 2735.35 976.705 2735.23 976.736C2734.74 976.899 2734.22 976.996 2733.7 977.025L2729.45 977.026Z" fill="white"/>
<path d="M2733.7 980.348H2728.92L2728.42 980.183C2727.73 979.957 2727.02 979.77 2726.32 979.58C2724.5 979.153 2722.74 978.526 2721.06 977.709C2711.61 972.757 2706.51 964.75 2706.32 954.556C2706.14 945.188 2706.18 935.68 2706.21 926.484C2706.23 922.627 2706.24 918.771 2706.24 914.915L2706.24 890.63C2706.25 871.742 2706.24 852.855 2706.23 833.968C2706.07 830.208 2706.75 826.46 2708.2 822.991C2709.66 819.522 2711.87 816.418 2714.66 813.899C2718.94 809.896 2724.45 807.462 2730.29 806.993C2736.12 806.524 2741.95 808.049 2746.81 811.317C2775.27 828.849 2803.71 846.39 2832.15 863.94C2833.38 864.697 2834.62 865.442 2835.85 866.187C2839.1 868.15 2842.46 870.178 2845.66 872.409C2849.16 874.823 2852.03 878.057 2853.99 881.83C2855.96 885.602 2856.98 889.799 2856.96 894.054C2856.94 898.265 2855.87 902.403 2853.85 906.1C2851.84 909.797 2848.94 912.938 2845.42 915.24C2838.75 919.702 2831.79 923.897 2825.05 927.953C2822.22 929.659 2819.39 931.365 2816.57 933.094C2809.48 937.442 2802.39 941.785 2795.3 946.126C2788.21 950.468 2781.12 954.81 2774.03 959.154C2772.82 960.011 2771.43 960.596 2769.96 960.87C2768.5 961.143 2766.99 961.098 2765.55 960.738C2763.81 960.273 2762.23 959.335 2760.98 958.028C2759.74 956.721 2758.88 955.096 2758.5 953.331C2758.13 951.567 2758.24 949.733 2758.84 948.031C2759.44 946.329 2760.5 944.826 2761.9 943.688C2762.53 943.191 2763.2 942.737 2763.89 942.331L2833.16 899.89C2837.47 897.251 2837.49 894.439 2837.04 892.282C2836.76 891.274 2836.27 890.337 2835.6 889.536C2834.94 888.734 2834.1 888.087 2833.16 887.638C2819.27 879.087 2805.39 870.53 2791.52 861.967L2765.82 846.116C2755.95 840.024 2746.07 833.938 2736.2 827.86C2735.34 827.231 2734.35 826.819 2733.3 826.659C2732.25 826.5 2731.18 826.597 2730.18 826.942C2729.17 827.288 2728.27 827.871 2727.54 828.643C2726.81 829.415 2726.28 830.352 2726 831.374C2725.91 832.247 2725.9 833.145 2725.9 833.992V952.893C2725.9 956.832 2727.51 959.358 2730.69 960.4C2731.49 960.645 2732.33 960.705 2733.15 960.575C2733.98 960.445 2734.76 960.129 2735.45 959.651C2736.95 958.696 2738.68 958.166 2740.46 958.116C2742.24 958.066 2744 958.498 2745.56 959.367C2747.11 960.236 2748.4 961.508 2749.29 963.05C2750.18 964.593 2750.64 966.347 2750.61 968.127C2750.56 969.789 2750.09 971.413 2749.25 972.848C2748.41 974.283 2747.22 975.483 2745.8 976.339C2742.85 978.184 2739.56 979.423 2736.12 979.981L2735.85 980.013C2735.15 980.221 2734.43 980.333 2733.7 980.348ZM2729.96 973.707H2733.7C2733.87 973.674 2734.04 973.631 2734.21 973.576C2734.56 973.477 2734.92 973.416 2735.28 973.396C2737.79 972.964 2740.19 972.037 2742.33 970.67C2742.82 970.394 2743.22 970 2743.51 969.525C2743.79 969.05 2743.95 968.51 2743.97 967.956C2743.98 967.439 2743.86 966.928 2743.62 966.471C2743.38 966.013 2743.03 965.625 2742.6 965.342C2742.05 964.929 2741.38 964.71 2740.69 964.717C2740.01 964.725 2739.34 964.959 2738.8 965.384C2737.31 966.339 2735.62 966.954 2733.86 967.183C2732.1 967.413 2730.31 967.251 2728.62 966.711C2722.67 964.762 2719.26 959.725 2719.26 952.892V833.991C2719.24 832.731 2719.31 831.471 2719.45 830.219L2719.59 829.569C2720.16 827.559 2721.19 825.712 2722.61 824.18C2724.03 822.647 2725.79 821.473 2727.75 820.754C2729.71 820.035 2731.82 819.792 2733.89 820.043C2735.96 820.295 2737.94 821.035 2739.68 822.202C2749.56 828.279 2759.44 834.365 2769.31 840.462L2795 856.313C2808.88 864.873 2822.76 873.429 2836.64 881.98C2838.35 882.9 2839.85 884.17 2841.04 885.707C2842.22 887.244 2843.07 889.015 2843.53 890.903C2844.8 896.849 2842.34 902.052 2836.63 905.555L2767.49 947.915C2767.01 948.193 2766.54 948.5 2766.1 948.833C2765.61 949.177 2765.25 949.665 2765.05 950.228C2764.85 950.791 2764.84 951.401 2765.01 951.973C2765.11 952.564 2765.39 953.109 2765.81 953.534C2766.23 953.96 2766.77 954.244 2767.36 954.35C2768.12 954.56 2768.92 954.497 2770.56 953.494C2777.65 949.147 2784.74 944.803 2791.83 940.462C2798.92 936.121 2806.01 931.778 2813.1 927.434C2815.93 925.695 2818.78 923.979 2821.63 922.263C2828.29 918.247 2835.19 914.096 2841.73 909.722C2844.35 908.014 2846.5 905.684 2848 902.94C2849.5 900.195 2850.3 897.122 2850.32 893.995C2850.35 890.816 2849.6 887.679 2848.12 884.864C2846.65 882.048 2844.5 879.642 2841.87 877.86C2838.84 875.754 2835.58 873.781 2832.42 871.874C2831.17 871.117 2829.91 870.364 2828.67 869.595C2800.23 852.047 2771.78 834.506 2743.33 816.972C2734.91 811.78 2726.29 812.45 2719.07 818.864C2716.98 820.76 2715.34 823.099 2714.26 825.711C2713.19 828.323 2712.71 831.142 2712.87 833.962C2712.89 852.852 2712.9 871.742 2712.88 890.632L2712.88 914.916C2712.88 918.781 2712.87 922.645 2712.85 926.51C2712.82 935.67 2712.78 945.139 2712.96 954.431C2713.11 962.271 2716.77 967.961 2724.14 971.827C2725.39 972.411 2726.7 972.861 2728.05 973.168C2728.69 973.339 2729.33 973.513 2729.96 973.707Z" fill="white"/>
</svg>
