<svg width="2346" height="2508" viewBox="0 0 2346 2508" fill="none" xmlns="http://www.w3.org/2000/svg">
<path d="M927.855 1330.46C927.862 1332.87 928.502 1335.24 929.71 1337.32C930.919 1339.41 932.654 1341.14 934.742 1342.35C936.829 1343.55 939.197 1344.18 941.607 1344.19C944.017 1344.19 946.385 1343.56 948.475 1342.35L995.417 1315.23L927.855 1129.42V1330.46Z" fill="#0F5C44"/>
<path d="M1549.64 995.275C1551.77 994.104 1553.54 992.373 1554.76 990.27C1555.97 988.166 1556.59 985.769 1556.54 983.339C1556.55 981.361 1556.14 979.403 1555.34 977.594C1554.16 974.98 1552.16 972.823 1549.64 971.448L1488.36 936.04L1444.8 1055.8L1549.64 995.275Z" fill="#0F5C44"/>
<path d="M1783.11 502.425H1688.29C1675.9 502.415 1663.81 506.224 1653.66 513.333C1643.52 520.442 1635.81 530.505 1631.59 542.152L1517 857.254C1562.07 883.264 1590.93 899.922 1590.93 899.922C1620.54 917.024 1636.22 949.046 1637.38 982.54C1638.24 999.517 1634.35 1016.4 1626.15 1031.29C1617.94 1046.17 1605.74 1058.47 1590.93 1066.81L1400.89 1176.5L1172.94 1803.36L1024.1 1394.06L989.761 1413.88C975.193 1422.35 958.495 1426.45 941.661 1425.68C923.534 1424.69 906.003 1418.86 890.889 1408.8C864.567 1391.79 845.283 1362.35 845.283 1330.46V902.326L714.298 542.152C710.055 530.511 702.336 520.456 692.186 513.35C682.036 506.243 669.947 502.429 657.557 502.425H562.871C553.084 502.428 543.444 504.811 534.783 509.368C526.122 513.926 518.7 520.521 513.155 528.586C507.61 536.651 504.11 545.943 502.956 555.662C501.802 565.381 503.029 575.234 506.531 584.373L1037.46 1970.11C1041.83 1981.51 1049.55 1991.32 1059.61 1998.24C1069.67 2005.16 1081.59 2008.86 1093.8 2008.86H1254.36C1266.58 2008.86 1278.52 2005.15 1288.59 1998.21C1298.66 1991.27 1306.39 1981.44 1310.74 1970.02L1839.49 584.285C1842.97 575.147 1844.18 565.3 1843.02 555.59C1841.85 545.881 1838.34 536.6 1832.8 528.546C1827.25 520.493 1819.83 513.907 1811.17 509.357C1802.52 504.807 1792.89 502.428 1783.11 502.425Z" fill="#0F5C44"/>
<path d="M1167.29 1216C1162.32 1218.87 1158.7 1223.59 1157.21 1229.13C1155.73 1234.66 1156.5 1240.56 1159.36 1245.53L1179.04 1279.65C1181.92 1284.61 1186.64 1288.22 1192.18 1289.7C1197.71 1291.18 1203.61 1290.4 1208.57 1287.53L1400.89 1176.5L1444.8 1055.8L1167.29 1216Z" fill="#0F5C44"/>
<path d="M1102.89 1323.6L1083.2 1289.53C1080.33 1284.57 1075.61 1280.94 1070.08 1279.46C1064.54 1277.97 1058.64 1278.74 1053.67 1281.61L995.417 1315.23L1024.1 1394.06L1094.96 1353.13C1099.93 1350.27 1103.55 1345.55 1105.04 1340.01C1106.52 1334.47 1105.75 1328.57 1102.89 1323.6Z" fill="#0F5C44"/>
<path d="M927.855 636.304C927.803 633.873 928.419 631.475 929.636 629.37C930.853 627.265 932.625 625.535 934.758 624.368C936.857 623.149 939.234 622.49 941.662 622.453C944.064 622.467 946.418 623.129 948.476 624.368L1488.36 936.041L1517 857.254C1356.35 764.483 989.761 552.841 989.761 552.841C956.358 533.557 919.526 537.832 888.306 558.899C862.474 576.357 845.282 604.728 845.282 636.305V902.326L927.855 1129.42L927.855 636.304Z" fill="#0F5C44"/>
</svg>
