<svg width="4320" height="4320" viewBox="0 0 4320 4320" fill="none" xmlns="http://www.w3.org/2000/svg">
<rect width="4320" height="4320" fill="#0F5C44"/>
<path d="M1673.2 2308.09C1673.22 2312.86 1674.48 2317.54 1676.88 2321.66C1679.27 2325.79 1682.7 2329.22 1686.83 2331.6C1690.96 2333.98 1695.65 2335.24 1700.42 2335.24C1705.19 2335.24 1709.87 2334 1714.01 2331.62L1806.89 2277.95L1673.2 1910.27V2308.09Z" fill="white"/>
<path d="M2903.57 1644.83C2907.78 1642.52 2911.28 1639.09 2913.69 1634.93C2916.1 1630.76 2917.32 1626.02 2917.23 1621.21C2917.24 1617.3 2916.43 1613.43 2914.85 1609.85C2912.51 1604.67 2908.55 1600.4 2903.57 1597.68L2782.3 1527.62L2696.11 1764.6L2903.57 1644.83Z" fill="white"/>
<path d="M3365.54 669.602H3177.91C3153.4 669.583 3129.48 677.12 3109.4 691.186C3089.33 705.253 3074.08 725.166 3065.73 748.212L2838.97 1371.72C2928.16 1423.19 2985.26 1456.15 2985.26 1456.15C3043.87 1489.99 3074.89 1553.36 3077.18 1619.63C3078.9 1653.23 3071.2 1686.63 3054.96 1716.09C3038.72 1745.55 3014.58 1769.89 2985.26 1786.37L2609.22 2003.43L2158.18 3243.84L1863.65 2433.94L1795.7 2473.15C1766.88 2489.91 1733.84 2498.02 1700.53 2496.51C1664.66 2494.54 1629.97 2483.01 1600.06 2463.11C1547.97 2429.44 1509.82 2371.19 1509.82 2308.09V1460.91L1250.63 748.212C1242.23 725.177 1226.96 705.281 1206.88 691.219C1186.79 677.158 1162.87 669.611 1138.35 669.602H950.989C931.623 669.607 912.549 674.323 895.411 683.341C878.273 692.36 863.585 705.41 852.613 721.369C841.642 737.327 834.716 755.714 832.433 774.945C830.149 794.176 832.577 813.674 839.506 831.758L1890.09 3573.8C1898.73 3596.36 1914.01 3615.77 1933.91 3629.46C1953.82 3643.15 1977.41 3650.47 2001.57 3650.47H2319.28C2343.47 3650.47 2367.09 3643.12 2387.02 3629.4C2406.94 3615.68 2422.23 3596.22 2430.85 3573.62L3477.11 831.583C3484 813.501 3486.4 794.016 3484.09 774.803C3481.78 755.59 3474.84 737.226 3463.87 721.29C3452.89 705.354 3438.21 692.323 3421.08 683.319C3403.95 674.315 3384.89 669.608 3365.54 669.602Z" fill="white"/>
<path d="M2146.98 2081.6C2137.16 2087.27 2129.99 2096.61 2127.04 2107.57C2124.1 2118.53 2125.63 2130.2 2131.29 2140.03L2170.25 2207.54C2175.93 2217.35 2185.27 2224.51 2196.23 2227.43C2207.19 2230.36 2218.86 2228.81 2228.67 2223.14L2609.21 2003.43L2696.11 1764.6L2146.98 2081.6Z" fill="white"/>
<path d="M2019.55 2294.52L1980.59 2227.1C1974.92 2217.28 1965.58 2210.11 1954.62 2207.17C1943.67 2204.23 1931.99 2205.75 1922.16 2211.42L1806.89 2277.96L1863.64 2433.94L2003.86 2352.95C2013.69 2347.28 2020.86 2337.94 2023.8 2326.99C2026.75 2316.03 2025.21 2304.35 2019.55 2294.52Z" fill="white"/>
<path d="M1673.2 934.517C1673.1 929.706 1674.32 924.96 1676.73 920.795C1679.14 916.63 1682.64 913.207 1686.87 910.898C1691.02 908.486 1695.72 907.181 1700.53 907.109C1705.28 907.137 1709.94 908.446 1714.01 910.898L2782.31 1527.62L2838.97 1371.73C2521.09 1188.15 1795.71 769.366 1795.71 769.366C1729.61 731.207 1656.73 739.666 1594.95 781.354C1543.83 815.9 1509.82 872.039 1509.82 934.522V1460.91L1673.2 1910.28V934.517Z" fill="white"/>
</svg>
