<svg width="1080" height="1080" viewBox="0 0 1080 1080" fill="none" xmlns="http://www.w3.org/2000/svg">
<rect width="1080" height="1080" fill="black"/>
<path d="M418.301 577.022C418.304 578.214 418.621 579.385 419.219 580.416C419.816 581.448 420.675 582.304 421.708 582.9C422.74 583.495 423.912 583.809 425.104 583.81C426.296 583.811 427.468 583.499 428.501 582.905L451.723 569.487L418.301 477.568V577.022Z" fill="white"/>
<path d="M725.892 411.207C726.945 410.628 727.82 409.772 728.423 408.731C729.025 407.69 729.33 406.505 729.307 405.302C729.31 404.324 729.108 403.355 728.712 402.46C728.127 401.167 727.138 400.1 725.892 399.42L695.576 381.904L674.028 441.149L725.892 411.207Z" fill="white"/>
<path d="M841.385 167.4H794.479C788.351 167.396 782.37 169.28 777.352 172.797C772.333 176.313 768.52 181.291 766.432 187.053L709.744 342.93C732.04 355.797 746.317 364.038 746.317 364.038C760.968 372.498 768.724 388.339 769.297 404.908C769.724 413.307 767.8 421.658 763.74 429.022C759.681 436.387 753.647 442.472 746.317 446.594L652.306 500.857L539.545 810.96L465.913 608.484L448.926 618.288C441.72 622.477 433.459 624.504 425.132 624.127C416.164 623.635 407.492 620.752 400.015 615.776C386.994 607.36 377.454 592.797 377.454 577.022V365.227L312.658 187.053C310.559 181.294 306.74 176.32 301.719 172.805C296.698 169.289 290.718 167.403 284.589 167.4H237.748C232.906 167.402 228.138 168.581 223.853 170.835C219.569 173.09 215.897 176.353 213.154 180.342C210.411 184.332 208.679 188.929 208.109 193.736C207.538 198.544 208.145 203.419 209.877 207.94L472.523 893.449C474.682 899.089 478.503 903.942 483.479 907.365C488.456 910.787 494.354 912.619 500.393 912.617H579.819C585.868 912.617 591.774 910.781 596.755 907.35C601.736 903.919 605.557 899.056 607.712 893.405L869.278 207.896C871.001 203.375 871.6 198.504 871.023 193.701C870.446 188.898 868.711 184.307 865.967 180.322C863.223 176.338 859.552 173.081 855.27 170.83C850.988 168.579 846.223 167.402 841.385 167.4Z" fill="white"/>
<path d="M536.746 520.399C534.29 521.816 532.497 524.151 531.761 526.89C531.026 529.629 531.408 532.548 532.824 535.006L542.562 551.882C543.982 554.336 546.319 556.125 549.058 556.856C551.797 557.588 554.715 557.201 557.169 555.782L652.304 500.856L674.027 441.148L536.746 520.399Z" fill="white"/>
<path d="M504.887 573.631L495.148 556.776C493.73 554.32 491.395 552.527 488.656 551.792C485.917 551.056 482.998 551.439 480.541 552.854L451.723 569.489L465.911 608.486L500.964 588.238C503.422 586.821 505.215 584.486 505.951 581.747C506.686 579.007 506.304 576.088 504.887 573.631Z" fill="white"/>
<path d="M418.301 233.627C418.275 232.425 418.58 231.238 419.182 230.197C419.785 229.156 420.661 228.3 421.717 227.723C422.755 227.12 423.931 226.793 425.132 226.775C426.32 226.782 427.485 227.11 428.503 227.723L695.577 381.904L709.744 342.929C630.273 297.036 448.926 192.339 448.926 192.339C432.402 182.8 414.182 184.915 398.737 195.337C385.959 203.973 377.454 218.008 377.454 233.628V365.226L418.301 477.568V233.627Z" fill="white"/>
</svg>
